<?xml version="1.0" encoding="UTF-8" standalone="no"?>
<svg
   xmlns:dc="http://purl.org/dc/elements/1.1/"
   xmlns:cc="http://creativecommons.org/ns#"
   xmlns:rdf="http://www.w3.org/1999/02/22-rdf-syntax-ns#"
   xmlns:svg="http://www.w3.org/2000/svg"
   xmlns="http://www.w3.org/2000/svg"
   xmlns:sodipodi="http://sodipodi.sourceforge.net/DTD/sodipodi-0.dtd"
   xmlns:inkscape="http://www.inkscape.org/namespaces/inkscape"
   width="210mm"
   height="297mm"
   viewBox="0 0 210 297"
   version="1.1"
   id="svg8"
   inkscape:version="1.0.2 (e86c8708, 2021-01-15)"
   sodipodi:docname="sun-icon.svg">
  <defs
     id="defs2" />
  <sodipodi:namedview
     id="base"
     pagecolor="#ffffff"
     bordercolor="#666666"
     borderopacity="1.0"
     inkscape:pageopacity="0.0"
     inkscape:pageshadow="2"
     inkscape:zoom="0.35"
     inkscape:cx="-132.85715"
     inkscape:cy="485.71429"
     inkscape:document-units="mm"
     inkscape:current-layer="layer1"
     inkscape:document-rotation="0"
     showgrid="false"
     inkscape:window-width="1252"
     inkscape:window-height="770"
     inkscape:window-x="111"
     inkscape:window-y="31"
     inkscape:window-maximized="0" />
  <metadata
     id="metadata5">
    <rdf:RDF>
      <cc:Work
         rdf:about="">
        <dc:format>image/svg+xml</dc:format>
        <dc:type
           rdf:resource="http://purl.org/dc/dcmitype/StillImage" />
        <dc:title></dc:title>
      </cc:Work>
    </rdf:RDF>
  </metadata>
  <g
     inkscape:label="Layer 1"
     inkscape:groupmode="layer"
     id="layer1">
    <g
       id="g245"
       transform="matrix(0.21375211,0,0,0.22281707,3.6899625,6.6003551)">
      <ellipse
         style="fill:#ff9955;fill-rule:evenodd;stroke-width:0.264583"
         id="path10"
         cx="109.23513"
         cy="108.47916"
         rx="60.098213"
         ry="57.074402" />
      <path
         style="fill:#ff9955;stroke-width:0.264583"
         id="path12"
         d="m 154.3353,62.527599 c 0.41173,-0.569466 0.77056,-1.181204 1.23519,-1.708394 2.14221,-2.430655 3.52977,-3.282098 5.98219,-5.652106 1.43759,-1.389271 2.87642,-2.783631 4.19493,-4.286369 0.85879,-0.978775 8.84286,-11.159466 9.32955,-11.778167 5.53313,-5.949792 5.79484,-6.81169 12.44486,-11.616085 2.21115,-1.597475 4.57721,-2.969799 6.9018,-4.39718 0.72376,-0.444415 -1.39814,0.964655 -2.09721,1.446982 0,0 7.64945,-6.163249 7.64945,-6.163249 v 0 c -5.56833,3.151324 -15.34082,8.250513 -21.25393,12.658526 -6.52865,4.866872 -6.98468,5.906291 -12.4736,11.844144 -1.67454,2.068766 -7.75014,9.659895 -9.76576,11.840919 -3.40976,3.689577 -7.62503,6.582611 -10.85841,10.42902 -0.53208,0.632963 -0.92735,1.369317 -1.39103,2.053976 0,0 10.10197,-4.672017 10.10197,-4.672017 z" />
      <path
         style="fill:#ff9955;stroke-width:0.264583"
         id="path12-1"
         d="m 69.634143,63.882496 c -0.56947,-0.41173 -1.18121,-0.77056 -1.7084,-1.23519 -2.43065,-2.14221 -3.2821,-3.52977 -5.6521,-5.98219 -1.38927,-1.43759 -2.78363,-2.87642 -4.28637,-4.19493 -0.97878,-0.85879 -11.15947,-8.84286 -11.77817,-9.32955 -5.94979,-5.53313 -6.81169,-5.79484 -11.61608,-12.44486 -1.59748,-2.21115 -2.9698,-4.57721 -4.39718,-6.9018 -0.44442,-0.72376 0.96465,1.39814 1.44698,2.09721 0,0 -6.16325,-7.64945 -6.16325,-7.64945 v 0 c 3.15132,5.56833 8.25051,15.34082 12.65853,21.25393 4.86687,6.52865 5.90629,6.98468 11.84414,12.4736 2.06876,1.67454 9.65989,7.75014 11.84092,9.76576 3.68958,3.40976 6.58261,7.62503 10.42902,10.85841 0.63296,0.53207 1.36931,0.92735 2.05397,1.39103 0,0 -4.67201,-10.10197 -4.67201,-10.10197 z" />
      <path
         style="fill:#ff9955;stroke-width:0.264583"
         id="path12-1-0"
         d="m 57.078919,145.05634 c -0.41173,0.56947 -0.77056,1.18121 -1.23519,1.7084 -2.14221,2.43065 -3.52977,3.2821 -5.98219,5.6521 -1.43759,1.38927 -2.87642,2.78363 -4.19493,4.28637 -0.85879,0.97878 -8.84286,11.15947 -9.32955,11.77817 -5.53313,5.94979 -5.79484,6.81169 -12.44486,11.61608 -2.21115,1.59748 -4.57721,2.9698 -6.9018,4.39718 -0.72376,0.44442 1.39814,-0.96465 2.09721,-1.44698 0,0 -7.64945,6.16325 -7.64945,6.16325 v 0 c 5.56833,-3.15132 15.34082,-8.25051 21.25393,-12.65853 6.52865,-4.86687 6.98468,-5.90629 12.4736,-11.84414 1.67454,-2.06876 7.75014,-9.65989 9.76576,-11.84092 3.40976,-3.68958 7.62503,-6.58261 10.85841,-10.42902 0.53207,-0.63296 0.92735,-1.36931 1.39103,-2.05397 0,0 -10.10197,4.67201 -10.10197,4.67201 z" />
      <path
         style="fill:#ff9955;stroke-width:0.264583"
         id="path12-1-02"
         d="m 180.75914,183.32297 c -0.56947,-0.41173 -1.18121,-0.77056 -1.7084,-1.23519 -2.43066,-2.14221 -3.28211,-3.52977 -5.65211,-5.98219 -1.38927,-1.43759 -2.78363,-2.87642 -4.28637,-4.19493 -0.97878,-0.85879 -11.15947,-8.84286 -11.77817,-9.32955 -5.94979,-5.53313 -6.81169,-5.79484 -11.61608,-12.44486 -1.59748,-2.21115 -2.9698,-4.57721 -4.39718,-6.9018 -0.44442,-0.72376 0.96465,1.39814 1.44698,2.09721 0,0 -6.16325,-7.64945 -6.16325,-7.64945 v 0 c 3.15132,5.56833 8.25051,15.34082 12.65853,21.25393 4.86687,6.52865 5.90629,6.98468 11.84414,12.4736 2.06876,1.67454 9.65989,7.75014 11.84092,9.76576 3.68958,3.40976 6.58262,7.62503 10.42903,10.85841 0.63296,0.53207 1.36931,0.92735 2.05397,1.39103 0,0 -4.67201,-10.10197 -4.67201,-10.10197 z" />
      <path
         style="fill:#ff9955;stroke-width:0.264583"
         id="path12-1-3"
         d="m 5.6215645,79.894385 c 0.700807,0.0518 1.409859,0.0364 2.10242,0.1554 3.1931215,0.54873 4.6459045,1.28339 7.9501205,2.12803 1.9369,0.49512 3.878783,0.98863 5.849825,1.32285 1.283799,0.21769 14.139527,1.67443 14.921571,1.76422 7.96799,1.58954 8.839069,1.36022 16.417809,4.5015 2.51996,1.04448 4.92948,2.33895 7.36413,3.56924 0.75804,0.38305 -1.5547,-0.68428 -2.33206,-1.02642 0,0 9.25991,3.27932 9.25991,3.27932 v 0 c -5.60395,-3.08754 -15.07166,-8.73251 -21.926376,-11.45435 -7.568261,-3.00516 -8.69241,-2.84815 -16.62704,-4.40632 -2.639697,-0.34042 -12.289625,-1.53078 -15.203823,-2.10268 -4.9298615,-0.96746 -9.6041185,-3.03855 -14.5749745,-3.77357 -0.817989,-0.12094 -1.652245,-0.0712 -2.47837,-0.10679 0,0 9.276858,6.14957 9.276858,6.14957 z" />
      <path
         style="fill:#ff9955;stroke-width:0.264583"
         id="path12-1-3-6"
         d="m 159.0799,131.29914 c 0.70081,0.0518 1.40986,0.0364 2.10242,0.15539 3.19312,0.54873 4.6459,1.28339 7.95012,2.12803 1.9369,0.49512 3.87878,0.98863 5.84983,1.32285 1.28379,0.21769 14.13952,1.67444 14.92157,1.76422 7.96799,1.58954 8.83907,1.36022 16.41781,4.5015 2.51996,1.04448 4.92948,2.33895 7.36413,3.56924 0.75804,0.38305 -1.5547,-0.68428 -2.33206,-1.02642 0,0 9.25991,3.27932 9.25991,3.27932 v 0 c -5.60395,-3.08754 -15.07166,-8.73251 -21.92638,-11.45435 -7.56826,-3.00516 -8.69241,-2.84815 -16.62704,-4.40632 -2.6397,-0.34042 -12.28963,-1.53078 -15.20382,-2.10268 -4.92987,-0.96746 -9.60412,-3.03855 -14.57498,-3.77357 -0.81799,-0.12094 -1.65224,-0.0712 -2.47837,-0.10679 0,0 9.27686,6.14957 9.27686,6.14958 z" />
      <path
         style="fill:#ff9955;stroke-width:0.264583"
         id="path12-1-3-6-2"
         d="m 135.1394,5.4086439 c -0.12424,0.69165 -0.1826,1.39847 -0.37283,2.07493 -0.87733,3.1188801 -1.75885,4.4875301 -2.94203,7.6861801 -0.69355,1.87502 -1.38602,3.75516 -1.92309,5.68086 -0.3498,1.25425 -3.13356,13.88922 -3.30406,14.65772 -2.40829,7.75988 -2.27067,8.65006 -6.18189,15.86166 -1.30051,2.39789 -2.83818,4.65998 -4.3146,6.95372 -0.45969,0.71417 0.84202,-1.47525 1.26302,-2.21288 0,0 -4.22309,8.86934 -4.22309,8.86934 v 0 c 3.65274,-5.25306 10.25025,-14.08345 13.66914,-20.61849 3.77477,-7.21533 3.73532,-8.3497 6.10896,-16.07965 0.61272,-2.59007 2.79859,-12.06425 3.66998,-14.90331 1.47413,-4.8027601 4.01937,-9.2366901 5.26657,-14.10437014 0.20519,-0.80101006 0.24236,-1.63591006 0.36354,-2.45388006 0,0 -7.07958,8.5881801 -7.07959,8.5881801 z" />
      <path
         style="fill:#ff9955;stroke-width:0.264583"
         id="path12-1-3-6-2-6"
         d="m 82.298766,157.4488 c -0.12424,0.69165 -0.1826,1.39847 -0.37283,2.07493 -0.87733,3.11888 -1.75885,4.48753 -2.94203,7.68618 -0.69355,1.87502 -1.38602,3.75516 -1.92309,5.68086 -0.3498,1.25425 -3.13356,13.88922 -3.30406,14.65772 -2.40829,7.75988 -2.27067,8.65006 -6.18189,15.86166 -1.30051,2.39789 -2.83818,4.65998 -4.314605,6.95372 -0.45969,0.71417 0.842025,-1.47525 1.263025,-2.21288 0,0 -4.223095,8.86934 -4.223095,8.86934 v 0 c 3.652745,-5.25306 10.250255,-14.08345 13.669145,-20.61849 3.77477,-7.21533 3.73532,-8.3497 6.10896,-16.07965 0.61272,-2.59007 2.79859,-12.06425 3.66998,-14.90331 1.47413,-4.80276 4.01937,-9.23669 5.26657,-14.10437 0.20519,-0.80101 0.24236,-1.63591 0.36354,-2.45388 0,0 -7.07958,8.58818 -7.07959,8.58818 z" />
      <path
         style="fill:#ff9955;stroke-width:0.264583"
         id="path12-1-3-6-2-6-0"
         d="m 53.751501,116.05607 c -0.69492,0.1043 -1.3831,0.27586 -2.08482,0.31283 -3.23546,0.17006 -4.81462,-0.22556 -8.223795,-0.31957 -1.998411,-0.0551 -4.001334,-0.10749 -5.997535,0.002 -1.300161,0.0713 -14.160146,1.48987 -14.942718,1.57503 -8.122288,0.2096 -8.921218,0.62564 -17.006591,-0.76415 -2.688417,-0.46213 -5.32434905,-1.19245 -7.970597,-1.85461 -0.823927,-0.20617 1.66744595,0.324 2.50117295,0.486 0,0 -9.75551295,-1.15313 -9.75551295,-1.15313 v 0 c 6.147484,1.77358 16.628173,5.18801 23.914765,6.32865 8.045113,1.25937 9.106812,0.85794 17.189637,0.62513 2.649703,-0.25097 12.324225,-1.22141 15.292754,-1.30729 5.02181,-0.14526 10.03806,0.84229 15.0485,0.46125 0.82449,-0.0627 1.62716,-0.29547 2.44075,-0.4432 0,0 -10.406,-3.94874 -10.406,-3.94876 z" />
      <path
         style="fill:#ff9955;stroke-width:0.264583"
         id="path12-1-3-6-2-6-0-3"
         d="m 66.560135,9.9837862 c 0.440081,0.5478398 0.93487,1.0559798 1.320233,1.6435798 1.776367,2.70955 2.229887,4.27306 3.865607,7.26567 0.95884,1.75422 1.922302,3.51098 3.022232,5.18041 0.71638,1.08732 8.4185,11.48294 8.88621,12.11614 4.27164,6.91147 5.03342,7.39216 7.90473,15.07723 0.95471,2.55532 1.65128,5.20037 2.41194,7.82 0.23683,0.81565 -0.55985,-1.60371 -0.83978,-2.40558 0,0 3.91689,9.00877 3.91689,9.00877 v 0 c -1.56378,-6.20418 -3.89229,-16.97828 -6.57657,-23.84778 -2.9637,-7.58462 -3.8452,-8.29967 -8.11703,-15.16537 -1.55127,-2.16275 -7.26196,-10.03205 -8.831188,-12.55338 C 70.86882,9.8581762 69.195682,5.0271662 66.343125,0.89042619 c -0.469405,-0.68072 -1.074759,-1.25691 -1.612074,-1.88545 0,0 1.829296,10.97867001 1.829274,10.97868001 z" />
      <path
         style="fill:#ff9955;stroke-width:0.264583"
         id="path12-1-3-6-2-6-0-3-0"
         d="m 163.39754,91.817522 c 0.6267,-0.31787 1.22581,-0.69745 1.88016,-0.9536 3.0172,-1.18052 4.64058,-1.30246 7.90583,-2.28708 1.91403,-0.57717 3.83151,-1.15834 5.69161,-1.89104 1.21151,-0.4772 12.97004,-5.87428 13.68596,-6.20162 7.64281,-2.75733 8.27002,-3.40384 16.38158,-4.63158 2.69713,-0.40821 5.42892,-0.54535 8.14903,-0.75043 0.84694,-0.0639 -1.68461,0.21771 -2.52693,0.32657 0,0 9.62215,-1.97842 9.62215,-1.97842 v 0 c -6.39322,0.25308 -17.4159,0.31373 -24.69085,1.52634 -8.03228,1.33883 -8.91348,2.05425 -16.51154,4.82119 -2.43577,1.07281 -11.31214,5.04119 -14.10251,6.05776 -4.72042,1.71966 -9.79238,2.36243 -14.42776,4.30229 -0.76277,0.31922 -1.45124,0.79299 -2.17693,1.18941 0,0 11.1201,0.46998 11.12011,0.47 z" />
      <path
         style="fill:#ff9955;stroke-width:0.264583"
         id="path12-1-3-6-2-6-0-3-0-4"
         d="m 111.59125,158.89397 c 0.25337,0.65544 0.5709,1.28962 0.76009,1.96638 0.87174,3.12044 0.83014,4.74786 1.48208,8.09544 0.38217,1.96229 0.76796,3.92843 1.31027,5.85267 0.35321,1.25328 4.54293,13.4941 4.79677,14.23926 1.97636,7.88095 2.55667,8.56988 2.96412,16.76371 0.13545,2.72447 -0.002,5.45623 -0.0712,8.1832 -0.0214,0.84907 -0.0475,-1.69796 -0.0713,-2.54696 0,0 1.00273,9.77213 1.00273,9.77213 v 0 c 0.38984,-6.38634 1.43574,-17.35945 0.95938,-24.71937 -0.52593,-8.12609 -1.1493,-9.07464 -3.13972,-16.91203 -0.82293,-2.53115 -3.88043,-11.76097 -4.61182,-14.63928 -1.23722,-4.86918 -1.36772,-9.98003 -2.83257,-14.7867 -0.24106,-0.79096 -0.64333,-1.5235 -0.96493,-2.28531 0,0 -1.58363,11.01679 -1.58366,11.0168 z" />
    </g>
  </g>
</svg>
